<?xml version="1.0" encoding="UTF-8"?>
<svg version="1.1" viewBox="0 0 122 40" xmlns="http://www.w3.org/2000/svg">
<path d="M11.6445 20.0984L5.12785 26.762V36.1125H0V0H5.12785V20.2058L24.5709 0H30.4466L15.1699 16.2292L31.5149 36.1125H25.5324L11.6445 20.0984Z" fill="#fff"/>
<path d="m68.905 33.211 2.0298-3.8692c2.3503 1.6121 5.9825 2.7944 9.5079 2.7944 4.5937 0 6.4098-1.3972 6.4098-3.7617 0-6.1263-17.2-0.8598-17.2-11.715 0-4.944 4.3801-8.1683 11.324-8.1683 3.5254 0 7.585 0.9673 9.9352 2.472l-2.1366 3.8692c-2.4571-1.6122-5.1278-2.1496-7.7986-2.1496-4.2732 0-6.4098 1.6122-6.4098 3.7617 0 6.4487 17.2 1.1823 17.2 11.823 0 4.944-4.4869 8.0608-11.751 8.0608-4.3801 0.1075-8.8669-1.2897-11.11-3.1168z" fill="#fff"/>
<path d="m122 19.561v16.552h-4.701v-3.6543c-1.602 2.472-4.7 3.8692-8.973 3.8692-6.196 0-10.042-3.3318-10.042-8.0608 0-4.4066 2.7773-7.9534 10.896-7.9534h7.799v-0.9673c0-4.1916-2.457-6.5561-7.264-6.5561-3.205 0-6.517 1.1822-8.654 2.9019l-2.0295-3.7618c2.7775-2.257 6.8375-3.5467 11.218-3.5467 7.585 0.10748 11.751 3.7617 11.751 11.178zm-4.914 8.1683v-3.8692h-7.585c-4.914 0-6.303 1.9346-6.303 4.1916 0 2.687 2.243 4.4066 5.982 4.4066 3.739 0.1075 6.731-1.5047 7.906-4.729z" fill="#fff"/>
<path d="m53.095 28.912v7.3085l3.0981-1.8272v-7.3084l-3.0981 1.8271z" fill="#fff"/>
<path d="m61.641 19.991-12.713-7.416-7.0508-4.0841-6.9439 12.145 0.1068 11.393 12.606 7.416 1.282-0.7523v-10.748l5.662-9.9955 5.7688 3.3318v10.748l1.282-0.7523v-11.285z" fill="#fff"/>
</svg>
