<?xml version="1.0" encoding="UTF-8" standalone="no"?>
<svg
   width="24.749495"
   height="24.000034"
   viewBox="0 0 24.749495 24.000034"
   fill="none"
   version="1.1"
   id="svg1"
   sodipodi:docname="Vector.svg"
   inkscape:version="1.3.2 (1:1.3.2+202311252150+091e20ef0f)"
   xmlns:inkscape="http://www.inkscape.org/namespaces/inkscape"
   xmlns:sodipodi="http://sodipodi.sourceforge.net/DTD/sodipodi-0.dtd"
   xmlns="http://www.w3.org/2000/svg"
   xmlns:svg="http://www.w3.org/2000/svg">
  <defs
     id="defs1" />
  <sodipodi:namedview
     id="namedview1"
     pagecolor="#ffffff"
     bordercolor="#666666"
     borderopacity="1.0"
     inkscape:showpageshadow="2"
     inkscape:pageopacity="0.0"
     inkscape:pagecheckerboard="0"
     inkscape:deskcolor="#d1d1d1"
     showgrid="false"
     inkscape:zoom="15.8"
     inkscape:cx="12.468354"
     inkscape:cy="12.025316"
     inkscape:window-width="1866"
     inkscape:window-height="1016"
     inkscape:window-x="54"
     inkscape:window-y="27"
     inkscape:window-maximized="1"
     inkscape:current-layer="svg1" />
  <path
     d="M 13.7212,0.843656 C 13.4728,0.328088 12.9479,0 12.3714,0 11.7949,0 11.2747,0.328088 11.0216,0.843656 L 8.0078798,7.04452 1.2774798,8.03816 C 0.71505484,8.12253 0.24636484,8.51623 0.07294894,9.05524 c -0.1734151,0.539 -0.0328085,1.13426 0.3702659,1.53266 l 4.88375496,4.8322 -1.15298,6.829 c -0.09374,0.5624 0.14061,1.1342 0.60461,1.467 0.46401,0.3328 1.07799,0.375 1.58418,0.1078 l 6.0133202,-3.2106 6.0133,3.2106 c 0.5062,0.2672 1.1202,0.2297 1.5842,-0.1078 0.464,-0.3375 0.6983,-0.9046 0.6046,-1.467 l -1.1577,-6.829 4.8838,-4.8322 C 24.7073,10.1895 24.8526,9.59424 24.6745,9.05524 24.4964,8.51623 24.0324,8.12253 23.47,8.03816 L 16.7349,7.04452 Z"
     fill="#ff6060"
     id="path1" />
</svg>
